<svg xmlns="http://www.w3.org/2000/svg" viewBox="0 0 400 300">
  <defs>
    <linearGradient id="aboutGradient" x1="0%" y1="0%" x2="100%" y2="100%">
      <stop offset="0%" stop-color="#4361ee"/>
      <stop offset="100%" stop-color="#3a0ca3"/>
    </linearGradient>
  </defs>
  
  <!-- Cloud infrastructure illustration -->
  <path d="M50,250 C20,250 0,230 0,200 C0,170 25,150 50,150 C60,150 70,155 75,165 C85,155 95,150 110,150 C140,150 160,170 160,200 C175,200 185,210 185,225 C185,245 170,250 150,250 L50,250 Z" 
        fill="url(#aboutGradient)" opacity="0.8"/>
  
  <!-- Server -->
  <rect x="200" y="100" width="150" height="100" rx="10" fill="#4361ee" opacity="0.9"/>
  <rect x="210" y="110" width="130" height="20" rx="5" fill="white" opacity="0.7"/>
  <rect x="210" y="140" width="130" height="20" rx="5" fill="white" opacity="0.7"/>
  <rect x="210" y="170" width="130" height="20" rx="5" fill="white" opacity="0.7"/>
  
  <!-- Database -->
  <ellipse cx="350" cy="80" rx="40" ry="15" fill="#4cc9f0"/>
  <path d="M310,80 L390,80 L385,180 L315,180 Z" fill="#4cc9f0" opacity="0.8"/>
  <ellipse cx="350" cy="180" rx="35" ry="10" fill="#4cc9f0" opacity="0.6"/>
  
  <!-- Connection lines -->
  <path d="M160,200 L195,150" stroke="#4361ee" stroke-width="2" stroke-dasharray="5,5" fill="none" opacity="0.5"/>
  <path d="M350,100 L300,150" stroke="#4cc9f0" stroke-width="2" stroke-dasharray="5,5" fill="none" opacity="0.5"/>
</svg>