<svg xmlns="http://www.w3.org/2000/svg" viewBox="0 0 1200 600">
  <defs>
    <linearGradient id="heroBg" x1="0%" y1="0%" x2="100%" y2="100%">
      <stop offset="0%" stop-color="#f8f9fa"/>
      <stop offset="100%" stop-color="#e9ecef"/>
    </linearGradient>
    <linearGradient id="cloud1" x1="0%" y1="0%" x2="100%" y2="100%">
      <stop offset="0%" stop-color="#4361ee" stop-opacity="0.05"/>
      <stop offset="100%" stop-color="#4cc9f0" stop-opacity="0.05"/>
    </linearGradient>
    <linearGradient id="cloud2" x1="0%" y1="0%" x2="100%" y2="100%">
      <stop offset="0%" stop-color="#4361ee" stop-opacity="0.03"/>
      <stop offset="100%" stop-color="#4cc9f0" stop-opacity="0.03"/>
    </linearGradient>
  </defs>
  
  <rect width="1200" height="600" fill="url(#heroBg)"/>
  
  <!-- Background Clouds -->
  <path d="M100,100 C50,100 0,80 0,50 C0,20 30,0 60,0 C75,0 90,10 95,25 C110,10 125,0 145,0 C170,0 190,20 190,45 C205,45 215,55 215,70 C215,90 195,100 170,100 L100,100 Z" 
        fill="url(#cloud1)" transform="translate(50,50)"/>
  
  <path d="M300,200 C250,200 200,180 200,150 C200,120 230,100 260,100 C275,100 290,110 295,125 C310,110 325,100 345,100 C370,100 390,120 390,145 C405,145 415,155 415,170 C415,190 395,200 370,200 L300,200 Z" 
        fill="url(#cloud2)" transform="translate(200,100)"/>
  
  <path d="M500,300 C450,300 400,280 400,250 C400,220 430,200 460,200 C475,200 490,210 495,225 C510,210 525,200 545,200 C570,200 590,220 590,245 C605,245 615,255 615,270 C615,290 595,300 570,300 L500,300 Z" 
        fill="url(#cloud1)" transform="translate(400,150)"/>
  
  <!-- Code brackets -->
  <path d="M900,300 L950,250 L900,200" fill="none" stroke="#4361ee" stroke-width="2" stroke-opacity="0.1"/>
  <path d="M1100,200 L1050,250 L1100,300" fill="none" stroke="#4cc9f0" stroke-width="2" stroke-opacity="0.1"/>
  
  <!-- Server rack outline -->
  <rect x="1000" y="350" width="150" height="200" rx="10" fill="none" stroke="#4361ee" stroke-width="2" stroke-opacity="0.1"/>
  <rect x="1010" y="360" width="130" height="50" rx="5" fill="none" stroke="#4cc9f0" stroke-width="1" stroke-opacity="0.1"/>
  <rect x="1010" y="420" width="130" height="50" rx="5" fill="none" stroke="#4cc9f0" stroke-width="1" stroke-opacity="0.1"/>
  <rect x="1010" y="480" width="130" height="50" rx="5" fill="none" stroke="#4cc9f0" stroke-width="1" stroke-opacity="0.1"/>
</svg>