<svg xmlns="http://www.w3.org/2000/svg" width="1200" height="628" viewBox="0 0 1200 628">
    <defs>
        <linearGradient id="twitterBg" x1="0%" y1="0%" x2="100%" y2="100%">
            <stop offset="0%" stop-color="#1DA1F2"/>
            <stop offset="100%" stop-color="#1A91DA"/>
        </linearGradient>
        <linearGradient id="twitterAccent" x1="0%" y1="0%" x2="100%" y2="0%">
            <stop offset="0%" stop-color="#4cc9f0"/>
            <stop offset="100%" stop-color="#4361ee"/>
        </linearGradient>
    </defs>
    
    <!-- Background -->
    <rect width="1200" height="628" fill="url(#twitterBg)"/>
    
    <!-- Twitter bird outline -->
    <path d="M100,200 C70,200 50,180 50,150 C50,120 80,100 110,100 C125,100 140,110 145,125 C160,110 175,100 195,100 C220,100 240,120 240,145 C255,145 265,155 265,170 C265,190 245,200 220,200 L100,200 Z" 
          fill="white" opacity="0.1" transform="rotate(-10 150 150)"/>
    
    <!-- Main content -->
    <rect x="200" y="150" width="800" height="300" rx="20" fill="white" opacity="0.95"/>
    
    <!-- Logo -->
    <path d="M250,250 C230,250 220,230 220,210 C220,190 240,180 260,180 C270,180 280,185 283,195 C290,185 300,180 315,180 C330,180 345,195 345,210 C355,210 360,220 360,230 C360,245 350,250 335,250 L250,250 Z" 
          fill="url(#twitterAccent)"/>
    
    <circle cx="280" cy="210" r="8" fill="white"/>
    
    <!-- Text content -->
    <text x="400" y="230" font-family="Arial, sans-serif" font-size="36" font-weight="bold" fill="#14171A">
        DevHubX Cloud Blog
    </text>
    
    <text x="400" y="280" font-family="Arial, sans-serif" font-size="28" fill="#657786">
        Follow for daily cloud computing insights,
    </text>
    
    <text x="400" y="320" font-family="Arial, sans-serif" font-size="28" fill="#657786">
        DevOps tips, and development tutorials
    </text>
    
    <!-- Stats -->
    <g transform="translate(400, 380)">
        <rect width="300" height="50" rx="10" fill="#F5F8FA"/>
        
        <text x="25" y="35" font-family="Arial, sans-serif" font-size="20" fill="#1DA1F2" font-weight="bold">
            @devhubx
        </text>
        
        <text x="200" y="35" font-family="Arial, sans-serif" font-size="18" fill="#657786">
            Follow us
        </text>
    </g>
    
    <!-- Website URL -->
    <text x="600" y="550" text-anchor="middle" font-family="Arial, sans-serif" font-size="28" fill="white" font-weight="bold">
        devhubxcloud.github.io
    </text>
    
    <!-- Hashtags -->
    <text x="600" y="590" text-anchor="middle" font-family="Arial, sans-serif" font-size="22" fill="white" opacity="0.9">
        #CloudComputing #DevOps #WebDevelopment #Tutorials
    </text>
</svg>